<?xml version="1.0" encoding="UTF-8"?>
<svg id="Layer_2" data-name="Layer 2" xmlns="http://www.w3.org/2000/svg" viewBox="0 0 1160.13 953.99">
  <defs>
    <style>
      .cls-1 {
        fill: #fff;
        stroke-width: 0px;
      }
    </style>
  </defs>
  <g id="Layer_1-2" data-name="Layer 1">
    <path class="cls-1" d="m97.18,725.65c31.41,53.84,105.18,176.21,243.69,215.21,27.63,7.78,85.97,23.41,151.91,3.16,92.95-28.54,144.55-111.06,174.07-158.24,48.61-77.73,37.93-109,94.95-177.23,33.62-40.23,65.97-63.62,91.78-82.29,63.9-46.21,130.85-94.62,193.05-75.96,36.54,10.96,42.7,36.45,63.3,31.65,45.72-10.66,72.73-149.63,25.32-186.73-10.22-8-33.33-9.66-79.12-12.66-68.55-4.49-67.93,2.23-85.45-3.16-49.3-15.17-73.98-74.39-107.6-155.08-31.87-76.48-26.16-94.87-50.64-110.77-55.31-35.92-165.72,5.18-177.23,56.97-4.56,20.54,9.71,28.01,6.33,47.47-8.54,49.23-116.39,96.84-215.21,82.29-113.93-16.78-143.47-105.52-246.86-98.11-6.67.48-52.99,4.3-91.78,31.65-128.03,90.26-108.1,390.29,9.49,591.82Z"/>
  </g>
</svg>